<svg width="63" height="108" viewBox="0 0 63 108" fill="none" xmlns="http://www.w3.org/2000/svg">
<g opacity="0.5">
<path fill-rule="evenodd" clip-rule="evenodd" d="M0.111084 36.7919C0.111084 72.1006 0.122986 73.6982 0.406597 76.4182C0.569228 77.9772 0.781438 79.666 0.878314 80.1712C1.76042 84.774 3.53487 88.1953 6.28982 90.6045C8.79641 92.7965 12.8416 94.2107 17.3505 94.4714L19.2575 94.5816L19.2174 83.0756C19.1955 76.7472 19.1955 68.6035 19.2174 64.9783L19.2575 58.3872L21.454 61.0532C24.5621 64.8259 24.6245 64.9023 25.894 66.4763C26.5233 67.2566 27.0742 67.9326 27.1181 67.9785C27.1869 68.0505 32.4515 74.5307 33.7509 76.1428C34.0026 76.4551 34.2772 76.794 34.3611 76.8959C34.445 76.9979 35.6458 78.4717 37.0294 80.1712C38.4132 81.8707 39.7029 83.449 39.8956 83.6787C40.0883 83.9083 41.0157 85.053 41.9567 86.2223L43.6674 88.3483L52.8592 88.3518C60.9979 88.355 62.5533 88.2935 61.9366 87.9934C61.8736 87.9628 61.3076 87.2989 60.6786 86.5181C60.0496 85.7373 59.466 85.0155 59.3818 84.9142C59.2976 84.8129 58.808 84.2117 58.2939 83.578C52.0163 75.8419 48.8151 71.9052 48.2442 71.2194C48.1603 71.1187 47.6797 70.5179 47.1763 69.8846C46.1941 68.6491 45.3071 67.5646 44.1849 66.2273C43.5761 65.5019 42.9148 64.6835 40.6161 61.8113C40.3644 61.4968 39.7653 60.7765 39.2849 60.2106C38.8045 59.6447 38.2768 58.9941 38.1121 58.7652C37.8137 58.3498 37.8137 58.3476 38.1466 57.9421C38.3302 57.7184 38.9952 56.8978 39.6245 56.1187C40.2538 55.3393 40.8374 54.621 40.9213 54.5219C41.0458 54.3753 42.6092 52.4527 43.2097 51.7078C43.4652 51.3907 45.9451 48.3658 46.1082 48.1719C46.1923 48.0722 46.7072 47.4398 47.2526 46.7665C47.798 46.0933 48.3129 45.4609 48.3968 45.361C48.4807 45.2613 48.7832 44.879 49.0691 44.5115C49.355 44.1443 50.1506 43.1672 50.8371 42.3404C51.5237 41.5136 52.3538 40.499 52.6821 40.0856C53.0102 39.6722 53.3152 39.2964 53.3599 39.2505C53.4044 39.2046 54.5694 37.7765 55.9486 36.077C57.3277 34.3776 58.4927 32.9495 58.5372 32.9036C58.5819 32.8577 59.1324 32.1812 59.7606 31.4004C60.3887 30.6196 61.1604 29.68 61.4753 29.3126C61.7901 28.9451 62.0484 28.588 62.0493 28.5192C62.0503 28.4504 57.9123 28.394 52.8539 28.394H43.6567L43.1747 29.0203C42.5221 29.8686 41.9974 30.5207 41.3271 31.3169C41.0177 31.6843 39.3931 33.6761 37.7167 35.743C36.0404 37.8099 34.6333 39.5386 34.59 39.5845C34.5466 39.6305 33.1402 41.3592 31.4647 43.4261C29.7893 45.493 28.3813 47.2217 28.336 47.2676C28.2907 47.3135 27.4034 48.4034 26.3642 49.6894C25.3249 50.9755 24.1587 52.4036 23.7726 52.8629C23.3866 53.3222 22.5561 54.3359 21.9269 55.1154C21.2979 55.895 20.6561 56.6842 20.5006 56.8691C20.3452 57.0542 20.0454 57.4498 19.8341 57.7483C19.6229 58.047 19.389 58.2911 19.3144 58.2911C19.2356 58.2911 19.1953 46.0867 19.2182 29.1456L19.2575 0H9.68431H0.111084V36.7919ZM0.756113 101.018C0.607518 101.124 0.571819 101.936 0.603552 104.485L0.645049 107.814H1.17901H1.71298L1.7589 106.648C1.80116 105.575 2.04999 104.891 2.39752 104.891C2.45443 104.891 2.92828 105.567 3.4508 106.394L4.40065 107.897H5.16361C6.05243 107.897 6.10309 108.073 4.56863 105.825C3.9477 104.915 3.41221 104.088 3.37865 103.988C3.34509 103.887 3.83114 103.214 4.45863 102.491C5.08596 101.769 5.55707 101.102 5.5052 101.011C5.45333 100.919 5.12548 100.879 4.77642 100.922C4.23604 100.988 4.00704 101.156 3.23264 102.05C2.73239 102.628 2.22025 103.217 2.09438 103.359C1.89026 103.589 1.8573 103.474 1.78926 102.291C1.71649 101.026 1.69574 100.964 1.33158 100.922C1.1218 100.898 0.862906 100.942 0.756113 101.018ZM6.62454 100.989C6.56626 101.053 6.51866 102.635 6.51866 104.505V107.906L8.76894 107.86L11.0192 107.814V107.229V106.644L9.30291 106.597L7.58659 106.55V105.72V104.891H9.03593H10.4853V104.312V103.734L9.07407 103.686L7.66287 103.638V102.97V102.302L9.31176 102.254L10.9608 102.207L10.9137 101.586L10.8667 100.966L8.79854 100.919C7.66104 100.894 6.68266 100.925 6.62454 100.989ZM11.7736 101.096C11.7323 101.214 12.1329 102.774 12.664 104.562L13.6297 107.814H14.2805H14.9315L15.5846 105.642C16.615 102.217 16.8928 101.243 16.8928 101.056C16.8928 100.96 16.6307 100.882 16.3105 100.882C15.6537 100.882 15.7492 100.666 14.8169 104.264C14.5849 105.16 14.3405 105.893 14.2738 105.893C14.2072 105.893 14.1095 105.686 14.0569 105.433C13.7963 104.184 12.8674 101.118 12.7165 101.01C12.4382 100.811 11.855 100.865 11.7736 101.096ZM17.6904 101.018C17.5418 101.124 17.5061 101.936 17.5379 104.485L17.5794 107.814H18.1133H18.6473V104.39V100.966L18.2659 100.922C18.0561 100.898 17.7972 100.942 17.6904 101.018ZM19.8263 101.022C19.6777 101.125 19.642 101.934 19.6737 104.485L19.7152 107.814H20.2492H20.7832L20.8594 105.475L20.9357 103.137L21.5313 104.306C21.8589 104.949 22.4131 106.001 22.7629 106.644C23.3976 107.811 23.4005 107.814 24.0744 107.814H24.7498L24.7911 104.427C24.836 100.749 24.8292 100.719 23.9909 100.95C23.6158 101.053 23.6139 101.063 23.5717 103.348L23.5293 105.642L23.1268 104.891C22.9054 104.477 22.5365 103.763 22.3071 103.304C21.5356 101.76 21.2715 101.301 21.0357 101.091C20.7714 100.856 20.1192 100.818 19.8263 101.022ZM27.7927 101.096C27.7516 101.213 27.7366 102.773 27.7595 104.561L27.801 107.814L28.3731 107.865L28.9452 107.917V105.619C28.9452 103.181 29.0558 102.968 29.4522 104.64C29.5827 105.191 29.8146 106.131 29.9674 106.728L30.245 107.814L30.872 107.864C31.3685 107.904 31.516 107.851 31.5807 107.613C31.6257 107.448 31.8716 106.458 32.1273 105.414C32.383 104.369 32.6297 103.473 32.6756 103.423C32.7217 103.373 32.7592 104.359 32.7592 105.614V107.897H33.3695H33.9797V104.491C33.9797 100.746 34.0154 100.879 33.0137 100.885C32.3223 100.888 32.1395 101.072 31.913 101.989C31.8027 102.437 31.5656 103.404 31.3862 104.139C31.0344 105.58 30.8539 105.937 30.7236 105.45C30.0787 103.039 29.708 101.537 29.708 101.334C29.708 101.009 29.3818 100.882 28.5466 100.882C28.1359 100.882 27.8381 100.966 27.7927 101.096ZM35.0858 100.993C34.8377 101.102 34.8226 105.096 35.0663 106.155C35.4937 108.013 37.7542 108.634 39.0254 107.243C39.6214 106.59 39.7752 105.775 39.7761 103.265L39.7771 101.055L39.396 100.951C38.5979 100.731 38.5567 100.849 38.5543 103.341C38.5518 105.877 38.4331 106.357 37.7478 106.606C37.1875 106.81 36.4419 106.477 36.2553 105.939C36.1784 105.718 36.1156 104.535 36.1156 103.311C36.1156 101.435 36.0776 101.069 35.8742 100.983C35.5996 100.868 35.3616 100.871 35.0858 100.993ZM40.7605 101.096C40.7193 101.213 40.7043 102.773 40.7272 104.561L40.7687 107.814H41.3027H41.8366L41.9129 106.517C41.9549 105.804 42.0406 105.222 42.1036 105.223C42.1666 105.224 42.5784 105.226 43.019 105.227C44.1511 105.231 44.2646 105.354 44.3539 106.68L44.4302 107.814L45.0224 107.867L45.6148 107.92L45.5437 106.574C45.4932 105.62 45.3962 105.137 45.2099 104.911C44.96 104.609 44.9661 104.571 45.3372 104.133C46.1708 103.148 45.6229 101.469 44.3492 101.104C43.3793 100.826 40.857 100.82 40.7605 101.096ZM46.7441 100.993C46.6881 101.055 46.6423 102.633 46.6423 104.501V107.897H47.1696H47.6968L47.7417 106.686L47.7865 105.475L48.8622 105.392C50.6188 105.255 51.306 104.536 51.1864 102.957C51.0664 101.373 50.3293 100.905 47.9264 100.889C47.332 100.885 46.7999 100.932 46.7441 100.993ZM52.05 101.096C52.0088 101.213 51.9939 102.773 52.0168 104.561L52.0582 107.814H52.5922H53.1262L53.1703 106.352L53.2144 104.891H54.4992H55.7841L55.8282 106.352L55.8723 107.814H56.4063H56.9402L56.9816 104.435L57.0228 101.057L56.6386 100.952C55.8996 100.749 55.796 100.924 55.796 102.38V103.721H54.4992H53.2025V102.403C53.2025 101.355 53.153 101.064 52.9611 100.983C52.5614 100.816 52.1296 100.869 52.05 101.096ZM57.563 101.027C57.5268 101.091 57.92 101.968 58.437 102.975C59.355 104.764 59.3786 104.842 59.4553 106.31L59.5338 107.814H60.0677H60.6017L60.678 106.394C60.7414 105.212 60.8246 104.856 61.1738 104.268C61.4046 103.879 61.5933 103.52 61.5933 103.469C61.5933 103.419 61.8643 102.854 62.1953 102.214L62.7974 101.051L62.4242 100.948C61.6754 100.743 61.3923 100.989 60.773 102.387C60.4478 103.121 60.1339 103.721 60.0755 103.721C60.0171 103.721 59.7551 103.214 59.4935 102.594C59.2318 101.974 58.9527 101.363 58.873 101.236C58.7208 100.993 57.6762 100.826 57.563 101.027ZM44.2668 102.481C44.5629 102.805 44.573 103.224 44.2942 103.641C44.1292 103.889 43.841 103.974 42.9975 104.026L41.9129 104.093V103.156V102.218H42.97C43.7275 102.218 44.0949 102.293 44.2668 102.481ZM49.7036 102.391C49.9024 102.508 49.9979 102.739 49.9964 103.101C49.9924 103.988 49.8158 104.135 48.7468 104.137L47.7865 104.139L47.7388 103.41C47.7125 103.009 47.7275 102.577 47.7722 102.45C47.8698 102.171 49.2562 102.129 49.7036 102.391ZM25.7414 107.155V107.917L26.3135 107.865C26.8688 107.815 26.887 107.793 26.9325 107.104L26.9794 106.394H26.3603H25.7414V107.155Z" fill="white"/>
</g>
</svg>
